<?xml version="1.0" encoding="utf-8"?>
<!-- Generator: Adobe Illustrator 27.0.0, SVG Export Plug-In . SVG Version: 6.00 Build 0)  -->
<svg version="1.1" id="Layer_1" xmlns="http://www.w3.org/2000/svg" xmlns:xlink="http://www.w3.org/1999/xlink" x="0px" y="0px"
	 viewBox="0 0 696.5 696.5" style="enable-background:new 0 0 696.5 696.5;" xml:space="preserve">
<style type="text/css">
	.st0{opacity:0.3;}
	.st1{fill-rule:evenodd;clip-rule:evenodd;fill:#04844A;}
	.st2{opacity:0.6;}
</style>
<g class="st0">
	<path class="st1" d="M348.3,64l83.3,83.3h117.8V265l83.3,83.3l-83.3,83.3v117.8H431.6l-83.3,83.3L265,549.3H147.3V431.6L64,348.3
		l83.3-83.3V147.3H265L348.3,64z"/>
</g>
<g class="st2">
	<path class="st1" d="M348.3,87l76.5,76.5H533v108.2l76.5,76.5L533,424.7v108.2H424.8l-76.5,76.5l-76.5-76.5H163.6V424.7l-76.5-76.5
		l76.5-76.5V163.5h108.2L348.3,87L348.3,87z"/>
</g>
<path class="st1" d="M348.3,113.3l68.8,68.8h97.3v97.3l68.8,68.8L514.4,417v97.3h-97.3l-68.8,68.8l-68.8-68.8h-97.3V417l-68.8-68.8
	l68.8-68.8v-97.3h97.3L348.3,113.3L348.3,113.3z"/>
</svg>
