<?xml version="1.0" standalone="no"?>
<!DOCTYPE svg PUBLIC "-//W3C//DTD SVG 20010904//EN"
 "http://www.w3.org/TR/2001/REC-SVG-20010904/DTD/svg10.dtd">
<svg version="1.0" xmlns="http://www.w3.org/2000/svg"
 width="816.000000pt" height="816.000000pt" viewBox="0 0 816.000000 816.000000"
 preserveAspectRatio="xMidYMid meet">
<metadata>
Created by potrace 1.14, written by Peter Selinger 2001-2017
</metadata>
<g transform="translate(0.000000,816.000000) scale(0.100000,-0.100000)"
fill="#000000" stroke="none">
<path d="M3582 7890 c-29 -3 -64 -5 -78 -4 -13 0 -24 -2 -24 -5 0 -3 -14 -6
-31 -5 -16 0 -54 -3 -82 -7 -29 -5 -70 -11 -92 -14 -47 -6 -82 -12 -150 -26
-27 -5 -66 -12 -85 -15 -19 -3 -38 -8 -43 -11 -4 -2 -20 -7 -35 -9 -79 -14
-340 -93 -472 -144 -30 -12 -71 -27 -91 -35 -19 -7 -57 -23 -85 -36 -27 -13
-51 -23 -54 -24 -12 -1 -278 -137 -315 -160 -22 -14 -47 -28 -55 -32 -31 -14
-115 -68 -118 -75 -2 -4 -10 -8 -18 -8 -8 0 -14 -4 -14 -10 0 -5 -5 -10 -10
-10 -9 0 -147 -92 -190 -127 -8 -7 -51 -40 -95 -75 -44 -35 -85 -67 -91 -73
-6 -5 -37 -32 -68 -60 -103 -90 -249 -239 -349 -356 -127 -148 -132 -154 -159
-192 -12 -18 -25 -34 -28 -37 -19 -17 -159 -229 -222 -335 -101 -172 -276
-536 -280 -585 0 -3 -9 -27 -20 -55 -11 -27 -21 -54 -23 -60 -1 -5 -5 -19 -9
-30 -35 -93 -101 -344 -121 -460 -3 -16 -8 -37 -10 -45 -5 -19 -17 -96 -21
-135 -1 -16 -3 -30 -4 -30 -3 0 -8 -40 -14 -110 -3 -33 -6 -60 -7 -60 -11 0
-16 -523 -6 -635 3 -30 8 -89 12 -130 3 -41 9 -84 12 -94 3 -11 7 -36 9 -55 2
-20 6 -52 10 -71 4 -19 8 -45 9 -57 2 -11 6 -29 9 -40 3 -10 8 -34 11 -53 19
-111 136 -512 156 -534 5 -6 9 -16 9 -23 0 -39 228 -517 267 -561 7 -7 13 -20
13 -28 0 -8 5 -14 10 -14 6 0 10 -5 10 -10 0 -6 8 -23 18 -38 10 -15 41 -61
68 -102 43 -67 183 -257 209 -286 5 -6 28 -33 50 -60 80 -98 238 -261 346
-357 30 -27 65 -59 79 -71 106 -95 310 -241 485 -347 104 -62 443 -239 459
-239 4 0 25 -9 49 -20 65 -30 249 -101 276 -106 14 -3 29 -8 35 -12 6 -3 16
-7 21 -8 6 -1 29 -9 53 -18 23 -8 42 -13 42 -10 0 2 9 0 20 -6 25 -13 289 -83
363 -95 17 -3 39 -8 48 -11 9 -2 34 -7 55 -10 21 -2 54 -9 74 -14 19 -5 55
-11 80 -14 61 -7 138 -16 175 -22 199 -30 684 -24 902 10 21 3 56 9 78 12 22
3 56 9 75 14 19 5 49 12 66 15 51 8 221 55 258 70 18 8 36 11 40 8 3 -4 6 0 6
7 0 7 3 11 6 7 9 -8 207 79 319 141 95 52 203 128 288 203 23 21 12 28 -45 34
-24 3 -59 7 -78 9 -19 3 -62 8 -95 12 -33 3 -63 8 -66 10 -3 2 -34 6 -70 10
-35 3 -67 8 -72 11 -4 2 -26 6 -50 9 -23 2 -52 6 -64 9 -13 3 -33 7 -45 10
-13 3 -43 8 -68 11 -25 3 -53 7 -62 10 -9 3 -27 7 -40 9 -13 3 -48 10 -78 16
-30 7 -64 13 -75 15 -11 2 -49 11 -85 19 -36 9 -76 18 -90 21 -28 6 -165 41
-284 74 -44 12 -87 25 -95 30 -9 4 -29 11 -46 14 -30 5 -143 40 -180 56 -26
11 -115 41 -125 42 -3 0 -21 9 -40 19 -19 11 -40 19 -47 19 -8 0 -21 4 -31 10
-9 5 -51 23 -92 41 -96 40 -383 180 -390 190 -3 4 -17 13 -30 18 -14 6 -34 17
-45 23 -11 7 -56 35 -100 63 -44 27 -82 52 -85 55 -3 3 -25 18 -50 35 -25 16
-52 35 -60 42 -39 33 -78 63 -83 63 -4 0 -17 10 -29 23 -13 12 -45 40 -71 62
-95 79 -325 317 -336 346 -1 6 -14 22 -27 36 -28 31 -194 277 -194 288 0 4
-13 30 -30 56 -16 27 -27 49 -23 49 3 0 -1 8 -9 18 -30 35 -138 309 -177 452
-12 41 -25 89 -30 105 -5 17 -13 48 -17 70 -4 22 -8 45 -9 50 -2 6 -6 27 -9
49 -3 21 -8 41 -10 45 -2 3 -7 31 -10 61 -4 30 -9 73 -12 95 -17 129 -26 278
-25 465 0 151 7 355 11 355 1 0 3 14 4 30 6 68 19 181 22 200 3 11 7 36 10 55
5 38 31 169 40 210 3 14 7 32 8 40 2 8 9 35 16 60 7 25 14 50 16 57 4 20 62
196 75 228 6 17 13 35 14 41 17 79 273 552 305 562 5 2 10 8 10 14 0 37 337
403 465 503 27 22 55 45 61 50 6 6 22 17 34 25 12 8 28 21 36 28 7 6 15 12 19
12 3 0 16 9 28 21 12 11 36 28 52 36 17 9 32 19 35 23 3 3 34 24 70 46 92 55
101 60 140 80 19 10 43 24 53 32 9 8 17 11 17 6 0 -5 4 -4 8 1 8 11 148 81
232 116 30 12 59 26 64 31 6 4 16 8 23 8 7 0 32 9 56 20 41 19 227 88 257 95
8 2 60 18 115 35 81 25 195 56 315 86 36 8 157 35 175 39 11 2 67 12 125 23
58 11 123 23 145 26 23 4 52 9 65 11 14 3 48 7 75 10 28 3 64 8 80 11 29 5 67
10 145 19 19 2 58 6 85 9 46 6 129 14 215 21 53 4 270 17 312 19 43 1 61 14
30 23 -12 3 -22 9 -22 14 0 5 -4 9 -8 9 -5 0 -55 26 -113 58 -57 32 -133 72
-169 89 -100 47 -180 83 -186 83 -3 0 -20 6 -37 14 -18 7 -59 24 -92 36 -33
12 -69 25 -80 30 -19 7 -104 34 -115 36 -3 0 -12 3 -20 6 -8 4 -26 9 -40 13
-14 3 -65 17 -115 30 -118 31 -281 64 -340 69 -16 2 -43 6 -60 9 -16 4 -57 9
-90 13 -33 3 -76 8 -95 10 -58 8 -551 11 -608 4z"/>
<path d="M5682 6092 c-17 -26 -47 -63 -65 -83 -18 -20 -46 -53 -62 -74 -17
-21 -34 -43 -40 -49 -30 -33 -65 -87 -83 -127 -31 -67 -32 -75 -48 -349 -12
-200 -8 -849 5 -942 1 -5 6 -8 12 -8 6 0 23 -9 38 -19 32 -23 81 -37 81 -24 0
5 8 18 18 29 9 10 30 39 47 64 16 25 34 48 40 52 7 5 7 8 0 8 -6 0 -6 3 1 8
16 11 106 168 141 247 29 66 51 143 59 210 2 17 6 46 10 65 30 154 32 496 4
610 -5 19 -11 51 -14 70 -3 19 -10 50 -15 68 -5 17 -7 32 -3 32 3 0 1 5 -6 12
-7 7 -12 20 -12 29 0 20 -59 201 -68 211 -4 4 -22 -14 -40 -40z"/>
<path d="M7688 5491 c-32 -11 -58 -17 -58 -15 0 2 -18 -3 -40 -11 -22 -8 -44
-15 -48 -16 -11 -3 -23 -6 -92 -24 -77 -21 -202 -60 -284 -87 -32 -11 -63 -21
-70 -22 -6 -1 -85 -27 -176 -56 -91 -30 -169 -55 -175 -56 -5 -1 -43 -14 -82
-28 -40 -13 -73 -22 -73 -19 0 3 -6 1 -12 -4 -7 -6 -26 -14 -43 -18 -36 -10
-25 -7 -112 -34 -40 -13 -73 -26 -73 -30 0 -17 231 -133 290 -146 8 -1 33 -8
55 -14 113 -30 301 -30 440 -1 28 6 63 13 79 16 16 3 75 19 130 36 56 17 108
32 116 33 8 2 16 4 18 5 1 2 5 3 10 5 4 1 14 4 22 8 14 5 114 34 150 43 8 2
33 8 55 14 22 6 51 12 65 15 14 2 40 6 58 10 18 3 65 7 105 10 58 4 75 9 90
26 9 12 17 27 17 33 0 7 9 30 19 52 11 21 17 42 15 46 -2 4 6 31 20 61 l24 54
-87 41 c-213 100 -246 107 -353 73z"/>
<path d="M7340 4320 c-8 -5 -31 -16 -50 -24 -19 -8 -56 -24 -83 -36 l-47 -21
29 -57 c16 -32 49 -103 74 -157 25 -55 59 -131 77 -170 18 -38 44 -95 57 -125
82 -179 235 -482 304 -599 32 -55 97 -121 152 -154 17 -11 34 -22 37 -26 3 -3
30 -19 60 -35 30 -16 66 -38 79 -48 13 -10 30 -18 37 -18 8 0 14 -4 14 -8 0
-5 10 -14 23 -19 l23 -11 19 158 c11 99 16 182 11 222 -7 69 -23 99 -155 293
-41 61 -88 130 -105 155 -16 25 -33 47 -36 50 -3 3 -30 39 -60 80 -30 41 -59
80 -65 86 -5 7 -19 24 -30 40 -19 26 -125 167 -142 189 -7 8 -30 39 -136 180
-4 5 -16 22 -28 38 -21 28 -34 32 -59 17z"/>
<path d="M4490 4159 c-19 -4 -55 -11 -79 -14 -25 -3 -48 -8 -51 -10 -4 -3 -22
-7 -41 -9 -45 -7 -93 -17 -96 -20 -2 -2 8 -30 23 -62 14 -32 29 -68 34 -79 33
-82 82 -174 103 -196 14 -14 56 -38 93 -54 38 -15 78 -31 89 -36 11 -5 101
-36 200 -68 167 -55 266 -86 455 -141 41 -12 95 -28 120 -35 25 -8 86 -26 135
-40 50 -14 109 -32 132 -40 l43 -14 39 67 c49 84 81 145 78 147 -1 1 -40 22
-87 47 -80 42 -110 59 -227 125 -27 14 -70 38 -98 53 -75 40 -98 54 -117 69
-10 8 -18 12 -18 9 0 -4 -46 20 -102 51 -151 83 -468 237 -507 246 -50 11 -82
12 -121 4z"/>
<path d="M6935 3323 c-25 -4 -133 -25 -185 -38 -70 -16 -217 -89 -307 -152
-74 -51 -235 -207 -329 -318 -32 -38 -61 -72 -64 -75 -3 -3 -32 -36 -64 -75
-86 -101 -223 -234 -289 -279 -31 -22 -57 -46 -58 -55 0 -9 -2 -24 -4 -33 -2
-9 1 -36 7 -60 5 -24 11 -47 12 -53 14 -64 69 -151 104 -163 30 -10 133 -9
172 2 51 15 133 62 159 91 14 17 40 48 56 70 17 21 37 46 45 55 23 25 144 181
259 335 42 55 79 105 83 110 19 24 117 156 283 380 98 132 181 245 186 250 9
12 -16 14 -66 8z"/>
</g>
</svg>
