<?xml version="1.0" encoding="utf-8"?>
<!-- Generator: Adobe Illustrator 27.0.0, SVG Export Plug-In . SVG Version: 6.00 Build 0)  -->
<svg version="1.1" id="Layer_1" xmlns="http://www.w3.org/2000/svg" xmlns:xlink="http://www.w3.org/1999/xlink" x="0px" y="0px"
	 viewBox="0 0 696.5 696.5" style="enable-background:new 0 0 696.5 696.5;" xml:space="preserve">
<style type="text/css">
	.st0{opacity:0.2;}
	.st1{fill-rule:evenodd;clip-rule:evenodd;fill:#B6A37C;}
	.st2{opacity:0.5;}
</style>
<g class="st0">
	<path class="st1" d="M348.3,0l102,102h144.3v144.3l102,102l-102,102v144.3H450.3l-102,102l-102-102H102V450.3L0,348.3l102-102V102
		h144.3L348.3,0z"/>
</g>
<g class="st2">
	<path class="st1" d="M348.3,57.6l85.1,85.1h120.4v120.4l85.1,85.1l-85.1,85.1v120.4H433.4l-85.1,85.1l-85.1-85.1H142.8V433.3
		l-85.1-85.1l85.1-85.1V142.7h120.4L348.3,57.6L348.3,57.6z"/>
</g>
<path class="st1" d="M348.3,113.3l68.8,68.8h97.3v97.3l68.8,68.8L514.4,417v97.3h-97.3l-68.8,68.8l-68.8-68.8h-97.3V417l-68.8-68.8
	l68.8-68.8v-97.3h97.3L348.3,113.3L348.3,113.3z"/>
</svg>
