<?xml version="1.0" encoding="utf-8"?>
<!-- Generator: Adobe Illustrator 27.0.0, SVG Export Plug-In . SVG Version: 6.00 Build 0)  -->
<svg version="1.1" id="Layer_1" xmlns="http://www.w3.org/2000/svg" xmlns:xlink="http://www.w3.org/1999/xlink" x="0px" y="0px"
	 viewBox="0 0 610.5 968.5" style="enable-background:new 0 0 610.5 968.5;" xml:space="preserve">
<style type="text/css">
	.st0{fill:#20AA76;stroke:#414042;stroke-width:0.5;stroke-miterlimit:10;}
	.st1{fill:#FFFFFF;enable-background:new    ;}
	.st2{fill:#00834A;}
	.st3{fill:#A69779;}
</style>
<g>
	<path class="st0" d="M305.2,0.2c-168.4,0-305,132.7-305,296.4c0,39.2,7.9,78,23.4,114l0,0l0,0c4.8,11.1,10.2,21.9,16.4,32.4
		L305.2,968L570.4,443c26.1-44.4,39.8-94.9,39.8-146.4C610.2,132.9,473.7,0.2,305.2,0.2z M169,568.3c0,0,123.5,85.3,275.4,0
		C444.4,568.3,307.6,673.8,169,568.3z M305.2,551.5C163.4,551.5,48,438.2,48,298.9S163.4,46.3,305.2,46.3
		c141.9,0,257.3,113.3,257.3,252.6S447.1,551.5,305.2,551.5L305.2,551.5z"/>
	<ellipse class="st1" cx="305.2" cy="298.9" rx="247.7" ry="239.7"/>
	<path class="st2" d="M306,101.6c33.8,0,72.6,10.5,107.5,31.4c0.7,0.3,1.7,1,2.4,1.4c1,0.7,1.7,1.4,1.4,2.7
		c-0.7,1.7-2.1,0.7-3.1,0.3c-9.8-2.4-19.5-4.4-29.3-5.7c-77.8-10.5-158.1,31.1-189.5,97.6c-31.8,67.9-16,142.5,41.9,193.1
		c39.8,34.4,87.6,49,142,44.2c11.1-1.1,22-3,32.8-5.7c1.7-0.3,3.8-2,4.9-0.3c1.4,2.4-1.7,3-3.1,4.1c-25.5,15.6-54.1,25.6-83.7,29.4
		c-102.2,13.8-197.8-39.5-232.7-130C59,265,114.5,152.9,219.8,115.1C245.3,106.3,271.1,101.6,306,101.6"/>
	<path class="st3" d="M378.6,402.8c1.4-8.1,3.1-16.2,4.5-24.3c-0.1-0.9,0.5-1.8,1.4-2c1,0,1.4,1,1.7,1.7c1.4,2.4,0.7,6.4,4.2,6.4
		c2.8,0,3.8-3.7,5.6-6.1c7-8.4,13.3-16.9,20.2-25.3c9.1-10.8,21.6-14.2,35.9-13.8c1,0,2.8-0.3,3.5,1.4c0.3,1-0.3,2-1.4,2.7
		c-11.9,6.1-17.1,17.2-24.8,26.7c-9.8,11.5-18.8,23.6-27.9,35.5c-1.7,2.4-3.5,3-6.6,2.4c-4.2-0.7-8.4-1-12.6-1.7
		C380.3,405.8,378.2,405.5,378.6,402.8"/>
	<path class="st3" d="M417.7,246.5c1.4-0.7,2.1-1.4,2.4-1c18.5,0.7,34.2-7.8,51.3-12.2c10.8-2.7,21.3-6.1,31.8-9.5
		c2.8-1,4.9-0.7,7,1.4c2.9,3,5.9,5.8,9.1,8.4c2.1,2,2.8,3.4,0.3,5.4l-17.8,16.2c-0.7,0.7-1.4,2-2.8,1.4c-1.7-0.7-0.7-2-0.3-3
		c0.3-2.4,2.8-5.1,1-6.8c-2.4-2-5.6,0.7-8,1.4c-13.3,3.4-26.2,9.5-40.1,10.8C438.2,260,427.4,254.9,417.7,246.5"/>
	<path class="st3" d="M326.6,290.7c1,0,2.8-0.7,3.5,0.7c1,1.7-1.4,2-2.1,3c-1.7,1.7-5.2,2.4-4.5,4.4s4.2,2,6.6,3
		c11.5,3.7,23.4,6.8,34.9,10.8c13.6,4.7,20.6,15.2,24.4,27.7c0.3,1,1,2-0.3,2.7c-0.7,0.3-2.1,0.3-2.4-0.3
		c-19.5-13.2-44-14.9-65.6-23.3c-4.9-1.7-9.8-3-14.7-4.4c-2.5-0.4-4.4-2.5-4.5-5.1l-2.1-12.2c-0.3-2.4,0-3.7,2.8-4.1
		C309.8,293.1,318.2,291.7,326.6,290.7"/>
	<path class="st3" d="M487.1,355.2c3.5-2,5.9-1,8.4-1.7c1.4-0.3,3.1,0.7,3.8-1c0.7-1.4-1-2.4-1.7-3.4c-7.3-9.5-15-18.9-22-28.4
		c-8.7-11.8-8.7-24.3-3.5-37.5c0.3-1,0.7-2.7,2.1-2.4c0.7,0,1.7,1.4,2.1,2.4c2.4,12.5,12.6,20.3,19.9,30.1
		c8.7,12.2,18.5,23.6,27.6,35.5c1.7,2,2.1,3.7,0.7,6.1c-2.1,3.5-3.9,7.1-5.6,10.8c-1.4,3-2.8,4.1-6.3,2
		C504.5,363.3,496.2,359.6,487.1,355.2"/>
	<path class="st3" d="M389.7,211.3v38.8c0,16.2-9.1,27-23.4,35.1c-1.4-1.7-1.4-3.4-0.7-4.4c3.1-5.4,2.8-10.8,2.8-16.5v-60.4
		c0-3.4,1-5.4,4.5-6.8c2.8-1,5.2-2.7,8-3.7c6.6-3,6.6-3,10.1,3.4c3.1,5.7,5.9,11.5,9.1,17.2c0.3,1,1.7,2.4,0.3,3.4s-2.4-0.3-3.5-1
		C394.7,214.6,392.3,212.9,389.7,211.3"/>
</g>
</svg>
